<?xml version="1.0" encoding="UTF-8" standalone="no"?>
<svg width="56px" height="60px" viewBox="0 0 56 60" version="1.1" xmlns="http://www.w3.org/2000/svg" xmlns:xlink="http://www.w3.org/1999/xlink">
    <g id="Page-1" stroke="none" stroke-width="1" fill="none" fill-rule="evenodd">
        <g id="Group" fill="#75767A">
            <path d="M10,1.77635684e-15 L3.98248862,1.77635684e-15 C1.79979503,1.77635684e-15 0,1.78899235 0,3.99582624 L0,8.00417376 C0,10.2034788 1.78302089,12 3.98248862,12 L10,12 L10,0 L10,1.77635684e-15 Z M14,0 L52.0175114,0 C54.2169791,0 56,1.79652125 56,3.99582624 L56,8.00417376 C56,10.2110077 54.200205,12 52.0175114,12 L14,12 L14,0 L14,0 Z" id="Combined-Shape" fill-opacity="0.5"></path>
            <path d="M10,16 L3.98248862,16 C1.79979503,16 0,17.7889923 0,19.9958262 L0,24.0041738 C0,26.2034788 1.78302089,28 3.98248862,28 L10,28 L10,16 L10,16 Z M14,16 L52.0175114,16 C54.2169791,16 56,17.7965212 56,19.9958262 L56,24.0041738 C56,26.2110077 54.200205,28 52.0175114,28 L14,28 L14,16 L14,16 Z" id="Combined-Shape-Copy" fill-opacity="0.4"></path>
            <path d="M10,32 L3.98248862,32 C1.79979503,32 0,33.7889923 0,35.9958262 L0,40.0041738 C0,42.2034788 1.78302089,44 3.98248862,44 L10,44 L10,32 L10,32 Z M14,32 L52.0175114,32 C54.2169791,32 56,33.7965212 56,35.9958262 L56,40.0041738 C56,42.2110077 54.200205,44 52.0175114,44 L14,44 L14,32 L14,32 Z" id="Combined-Shape-Copy-2" fill-opacity="0.3"></path>
            <path d="M10,48 L3.98248862,48 C1.79979503,48 0,49.7889923 0,51.9958262 L0,56.0041738 C0,58.2034788 1.78302089,60 3.98248862,60 L10,60 L10,48 L10,48 Z M14,48 L52.0175114,48 C54.2169791,48 56,49.7965212 56,51.9958262 L56,56.0041738 C56,58.2110077 54.200205,60 52.0175114,60 L14,60 L14,48 L14,48 Z" id="Combined-Shape-Copy-3" fill-opacity="0.2"></path>
        </g>
    </g>
</svg>
